<mxfile host="app.diagrams.net" modified="2024-02-26T12:33:17.103Z" agent="Mozilla/5.0 (Windows NT 10.0; Win64; x64) AppleWebKit/537.36 (KHTML, like Gecko) Chrome/122.0.0.0 Safari/537.36" etag="-iMWefcEMkqa4zheBve0" version="23.1.6" type="github">
  <diagram name="Page-1" id="8oMHfR-b3h0ZMFrPSHgY">
    <mxGraphModel dx="607" dy="410" grid="1" gridSize="10" guides="1" tooltips="1" connect="1" arrows="1" fold="1" page="1" pageScale="1" pageWidth="827" pageHeight="1169" math="0" shadow="0">
      <root>
        <mxCell id="0" />
        <mxCell id="1" parent="0" />
        <mxCell id="kiSYdIvKrgvM_TdTaDBx-1" value="créateur de contenu" style="rounded=0;whiteSpace=wrap;html=1;" vertex="1" parent="1">
          <mxGeometry x="240" y="40" width="80" height="40" as="geometry" />
        </mxCell>
        <mxCell id="kiSYdIvKrgvM_TdTaDBx-2" value="&lt;font style=&quot;font-size: 10px;&quot;&gt;authentification&amp;nbsp;&lt;/font&gt;" style="rounded=0;whiteSpace=wrap;html=1;" vertex="1" parent="1">
          <mxGeometry x="120" y="40" width="80" height="40" as="geometry" />
        </mxCell>
        <mxCell id="kiSYdIvKrgvM_TdTaDBx-3" value="Base de donner" style="rounded=0;whiteSpace=wrap;html=1;" vertex="1" parent="1">
          <mxGeometry x="520" y="40" width="80" height="40" as="geometry" />
        </mxCell>
        <mxCell id="kiSYdIvKrgvM_TdTaDBx-4" value="" style="endArrow=none;html=1;rounded=0;entryX=0.5;entryY=1;entryDx=0;entryDy=0;" edge="1" parent="1" target="kiSYdIvKrgvM_TdTaDBx-1">
          <mxGeometry width="50" height="50" relative="1" as="geometry">
            <mxPoint x="280" y="120" as="sourcePoint" />
            <mxPoint x="310" y="130" as="targetPoint" />
          </mxGeometry>
        </mxCell>
        <mxCell id="kiSYdIvKrgvM_TdTaDBx-5" value="" style="endArrow=none;html=1;rounded=0;entryX=0.5;entryY=1;entryDx=0;entryDy=0;" edge="1" parent="1" target="kiSYdIvKrgvM_TdTaDBx-2">
          <mxGeometry width="50" height="50" relative="1" as="geometry">
            <mxPoint x="160" y="140" as="sourcePoint" />
            <mxPoint x="200" y="90" as="targetPoint" />
          </mxGeometry>
        </mxCell>
        <mxCell id="kiSYdIvKrgvM_TdTaDBx-6" value="" style="rounded=0;whiteSpace=wrap;html=1;" vertex="1" parent="1">
          <mxGeometry x="270" y="120" width="20" height="480" as="geometry" />
        </mxCell>
        <mxCell id="kiSYdIvKrgvM_TdTaDBx-7" value="" style="endArrow=classic;html=1;rounded=0;entryX=1;entryY=0;entryDx=0;entryDy=0;exitX=0.052;exitY=0.021;exitDx=0;exitDy=0;exitPerimeter=0;" edge="1" parent="1" source="kiSYdIvKrgvM_TdTaDBx-6" target="kiSYdIvKrgvM_TdTaDBx-9">
          <mxGeometry width="50" height="50" relative="1" as="geometry">
            <mxPoint x="260" y="130" as="sourcePoint" />
            <mxPoint x="386" y="140" as="targetPoint" />
          </mxGeometry>
        </mxCell>
        <mxCell id="kiSYdIvKrgvM_TdTaDBx-8" value="Ce connecter" style="text;html=1;align=center;verticalAlign=middle;whiteSpace=wrap;rounded=0;" vertex="1" parent="1">
          <mxGeometry x="190" y="90" width="60" height="30" as="geometry" />
        </mxCell>
        <mxCell id="kiSYdIvKrgvM_TdTaDBx-9" value="" style="rounded=0;whiteSpace=wrap;html=1;" vertex="1" parent="1">
          <mxGeometry x="150" y="130" width="20" height="470" as="geometry" />
        </mxCell>
        <mxCell id="kiSYdIvKrgvM_TdTaDBx-11" value="Validation" style="text;html=1;align=center;verticalAlign=middle;whiteSpace=wrap;rounded=0;" vertex="1" parent="1">
          <mxGeometry x="183" y="142" width="74" height="30" as="geometry" />
        </mxCell>
        <mxCell id="kiSYdIvKrgvM_TdTaDBx-12" value="" style="endArrow=classic;html=1;rounded=0;exitX=1.129;exitY=0.17;exitDx=0;exitDy=0;exitPerimeter=0;" edge="1" parent="1" source="kiSYdIvKrgvM_TdTaDBx-6">
          <mxGeometry width="50" height="50" relative="1" as="geometry">
            <mxPoint x="180" y="240" as="sourcePoint" />
            <mxPoint x="430" y="202" as="targetPoint" />
          </mxGeometry>
        </mxCell>
        <mxCell id="kiSYdIvKrgvM_TdTaDBx-14" value="Forum" style="rounded=0;whiteSpace=wrap;html=1;" vertex="1" parent="1">
          <mxGeometry x="400" y="40" width="80" height="40" as="geometry" />
        </mxCell>
        <mxCell id="kiSYdIvKrgvM_TdTaDBx-15" value="" style="endArrow=none;html=1;rounded=0;entryX=0.5;entryY=1;entryDx=0;entryDy=0;exitX=0.5;exitY=0;exitDx=0;exitDy=0;" edge="1" parent="1" source="kiSYdIvKrgvM_TdTaDBx-13" target="kiSYdIvKrgvM_TdTaDBx-14">
          <mxGeometry width="50" height="50" relative="1" as="geometry">
            <mxPoint x="410" y="200" as="sourcePoint" />
            <mxPoint x="460" y="150" as="targetPoint" />
          </mxGeometry>
        </mxCell>
        <mxCell id="kiSYdIvKrgvM_TdTaDBx-16" value="Crée un thread" style="text;html=1;align=center;verticalAlign=middle;whiteSpace=wrap;rounded=0;" vertex="1" parent="1">
          <mxGeometry x="320" y="160" width="74" height="30" as="geometry" />
        </mxCell>
        <mxCell id="kiSYdIvKrgvM_TdTaDBx-17" value="" style="endArrow=none;dashed=1;html=1;dashPattern=1 3;strokeWidth=2;rounded=0;" edge="1" parent="1">
          <mxGeometry width="50" height="50" relative="1" as="geometry">
            <mxPoint x="290" y="278" as="sourcePoint" />
            <mxPoint x="430" y="278.21000000000004" as="targetPoint" />
          </mxGeometry>
        </mxCell>
        <mxCell id="kiSYdIvKrgvM_TdTaDBx-18" value="notification de post envoyer" style="text;html=1;align=center;verticalAlign=middle;whiteSpace=wrap;rounded=0;" vertex="1" parent="1">
          <mxGeometry x="319" y="243" width="84" height="30" as="geometry" />
        </mxCell>
        <mxCell id="kiSYdIvKrgvM_TdTaDBx-19" value="" style="endArrow=none;html=1;rounded=0;entryX=0.5;entryY=1;entryDx=0;entryDy=0;" edge="1" parent="1" source="kiSYdIvKrgvM_TdTaDBx-20" target="kiSYdIvKrgvM_TdTaDBx-3">
          <mxGeometry width="50" height="50" relative="1" as="geometry">
            <mxPoint x="560" y="240" as="sourcePoint" />
            <mxPoint x="610" y="140" as="targetPoint" />
          </mxGeometry>
        </mxCell>
        <mxCell id="kiSYdIvKrgvM_TdTaDBx-21" value="" style="endArrow=none;html=1;rounded=0;entryX=0.5;entryY=1;entryDx=0;entryDy=0;" edge="1" parent="1" target="kiSYdIvKrgvM_TdTaDBx-20">
          <mxGeometry width="50" height="50" relative="1" as="geometry">
            <mxPoint x="560" y="240" as="sourcePoint" />
            <mxPoint x="560" y="80" as="targetPoint" />
          </mxGeometry>
        </mxCell>
        <mxCell id="kiSYdIvKrgvM_TdTaDBx-20" value="" style="rounded=0;whiteSpace=wrap;html=1;" vertex="1" parent="1">
          <mxGeometry x="550" y="220" width="20" height="390" as="geometry" />
        </mxCell>
        <mxCell id="kiSYdIvKrgvM_TdTaDBx-23" value="requête" style="text;html=1;align=center;verticalAlign=middle;whiteSpace=wrap;rounded=0;" vertex="1" parent="1">
          <mxGeometry x="470" y="180" width="60" height="30" as="geometry" />
        </mxCell>
        <mxCell id="kiSYdIvKrgvM_TdTaDBx-24" value="" style="endArrow=none;dashed=1;html=1;dashPattern=1 3;strokeWidth=2;rounded=0;" edge="1" parent="1">
          <mxGeometry width="50" height="50" relative="1" as="geometry">
            <mxPoint x="170" y="172" as="sourcePoint" />
            <mxPoint x="270" y="172" as="targetPoint" />
          </mxGeometry>
        </mxCell>
        <mxCell id="kiSYdIvKrgvM_TdTaDBx-26" value="visiteur" style="rounded=0;whiteSpace=wrap;html=1;" vertex="1" parent="1">
          <mxGeometry y="40" width="80" height="40" as="geometry" />
        </mxCell>
        <mxCell id="kiSYdIvKrgvM_TdTaDBx-27" value="" style="endArrow=none;html=1;rounded=0;entryX=0.5;entryY=1;entryDx=0;entryDy=0;" edge="1" parent="1">
          <mxGeometry width="50" height="50" relative="1" as="geometry">
            <mxPoint x="40" y="120" as="sourcePoint" />
            <mxPoint x="40" y="80" as="targetPoint" />
          </mxGeometry>
        </mxCell>
        <mxCell id="kiSYdIvKrgvM_TdTaDBx-28" value="" style="rounded=0;whiteSpace=wrap;html=1;" vertex="1" parent="1">
          <mxGeometry x="30" y="120" width="20" height="480" as="geometry" />
        </mxCell>
        <mxCell id="kiSYdIvKrgvM_TdTaDBx-29" value="" style="endArrow=classic;html=1;rounded=0;entryX=0;entryY=0;entryDx=0;entryDy=0;" edge="1" parent="1" target="kiSYdIvKrgvM_TdTaDBx-20">
          <mxGeometry width="50" height="50" relative="1" as="geometry">
            <mxPoint x="450" y="220" as="sourcePoint" />
            <mxPoint x="480" y="160" as="targetPoint" />
          </mxGeometry>
        </mxCell>
        <mxCell id="kiSYdIvKrgvM_TdTaDBx-30" value="" style="endArrow=none;dashed=1;html=1;dashPattern=1 3;strokeWidth=2;rounded=0;" edge="1" parent="1">
          <mxGeometry width="50" height="50" relative="1" as="geometry">
            <mxPoint x="460" y="260" as="sourcePoint" />
            <mxPoint x="550" y="260" as="targetPoint" />
          </mxGeometry>
        </mxCell>
        <mxCell id="kiSYdIvKrgvM_TdTaDBx-31" value="résultat" style="text;html=1;align=center;verticalAlign=middle;whiteSpace=wrap;rounded=0;" vertex="1" parent="1">
          <mxGeometry x="463" y="224" width="74" height="23" as="geometry" />
        </mxCell>
        <mxCell id="kiSYdIvKrgvM_TdTaDBx-32" style="edgeStyle=orthogonalEdgeStyle;rounded=0;orthogonalLoop=1;jettySize=auto;html=1;exitX=0.5;exitY=1;exitDx=0;exitDy=0;" edge="1" parent="1" source="kiSYdIvKrgvM_TdTaDBx-13" target="kiSYdIvKrgvM_TdTaDBx-13">
          <mxGeometry relative="1" as="geometry" />
        </mxCell>
        <mxCell id="kiSYdIvKrgvM_TdTaDBx-33" value="" style="endArrow=none;html=1;rounded=0;entryX=0.5;entryY=1;entryDx=0;entryDy=0;exitX=0.5;exitY=0;exitDx=0;exitDy=0;" edge="1" parent="1" source="kiSYdIvKrgvM_TdTaDBx-13">
          <mxGeometry width="50" height="50" relative="1" as="geometry">
            <mxPoint x="439.8" y="440" as="sourcePoint" />
            <mxPoint x="439.8" y="320" as="targetPoint" />
          </mxGeometry>
        </mxCell>
        <mxCell id="kiSYdIvKrgvM_TdTaDBx-35" value="" style="endArrow=none;html=1;rounded=0;entryX=0.5;entryY=1;entryDx=0;entryDy=0;" edge="1" parent="1" target="kiSYdIvKrgvM_TdTaDBx-13">
          <mxGeometry width="50" height="50" relative="1" as="geometry">
            <mxPoint x="440" y="570" as="sourcePoint" />
            <mxPoint x="439.8" y="320" as="targetPoint" />
            <Array as="points">
              <mxPoint x="440" y="490" />
            </Array>
          </mxGeometry>
        </mxCell>
        <mxCell id="kiSYdIvKrgvM_TdTaDBx-13" value="" style="rounded=0;whiteSpace=wrap;html=1;" vertex="1" parent="1">
          <mxGeometry x="430" y="198" width="20" height="222" as="geometry" />
        </mxCell>
        <mxCell id="kiSYdIvKrgvM_TdTaDBx-36" value="" style="endArrow=classic;html=1;rounded=0;exitX=1.171;exitY=0.166;exitDx=0;exitDy=0;exitPerimeter=0;entryX=0;entryY=0.149;entryDx=0;entryDy=0;entryPerimeter=0;" edge="1" parent="1" source="kiSYdIvKrgvM_TdTaDBx-28" target="kiSYdIvKrgvM_TdTaDBx-9">
          <mxGeometry width="50" height="50" relative="1" as="geometry">
            <mxPoint x="150" y="193.68" as="sourcePoint" />
            <mxPoint x="110" y="200" as="targetPoint" />
          </mxGeometry>
        </mxCell>
        <mxCell id="kiSYdIvKrgvM_TdTaDBx-37" value="Ce connecter" style="text;html=1;align=center;verticalAlign=middle;whiteSpace=wrap;rounded=0;" vertex="1" parent="1">
          <mxGeometry x="69" y="153.68" width="60" height="30" as="geometry" />
        </mxCell>
        <mxCell id="kiSYdIvKrgvM_TdTaDBx-38" value="Validation" style="text;html=1;align=center;verticalAlign=middle;whiteSpace=wrap;rounded=0;" vertex="1" parent="1">
          <mxGeometry x="62" y="205.68" width="74" height="30" as="geometry" />
        </mxCell>
        <mxCell id="kiSYdIvKrgvM_TdTaDBx-39" value="" style="endArrow=none;dashed=1;html=1;dashPattern=1 3;strokeWidth=2;rounded=0;" edge="1" parent="1">
          <mxGeometry width="50" height="50" relative="1" as="geometry">
            <mxPoint x="49" y="235.68" as="sourcePoint" />
            <mxPoint x="149" y="235.68" as="targetPoint" />
          </mxGeometry>
        </mxCell>
        <mxCell id="kiSYdIvKrgvM_TdTaDBx-40" value="" style="endArrow=classic;html=1;rounded=0;exitX=1.129;exitY=0.17;exitDx=0;exitDy=0;exitPerimeter=0;entryX=-0.182;entryY=0.418;entryDx=0;entryDy=0;entryPerimeter=0;" edge="1" parent="1">
          <mxGeometry width="50" height="50" relative="1" as="geometry">
            <mxPoint x="50" y="329" as="sourcePoint" />
            <mxPoint x="426.3599999999999" y="329.79599999999994" as="targetPoint" />
          </mxGeometry>
        </mxCell>
        <mxCell id="kiSYdIvKrgvM_TdTaDBx-41" value="consulte le post" style="text;html=1;align=center;verticalAlign=middle;whiteSpace=wrap;rounded=0;" vertex="1" parent="1">
          <mxGeometry x="327" y="294" width="60" height="30" as="geometry" />
        </mxCell>
      </root>
    </mxGraphModel>
  </diagram>
</mxfile>
